<svg height="496pt" viewBox="0 0 496 496" width="496pt" xmlns="http://www.w3.org/2000/svg"><path d="m424 352h40c13.257812 0 24 10.742188 24 24s-10.742188 24-24 24h-40zm0 0" fill="#fcd770"/><path d="m424 400h29.664062c1.488282-7.785156 2.335938-15.792969 2.335938-24s-.847656-16.214844-2.335938-24h-29.664062zm0 0" fill="#ffc729"/><path d="m328 264h-320v8l24 72h188.695312c-3.015624 10.144531-4.695312 20.871094-4.695312 32 0 61.855469 50.144531 112 112 112s112-50.144531 112-112-50.144531-112-112-112zm0 0" fill="#ff826e"/><path d="m392 376c0 35.347656-28.652344 64-64 64s-64-28.652344-64-64 28.652344-64 64-64 64 28.652344 64 64zm0 0" fill="#fcd770"/><path d="m128 264h48v32h-48zm0 0" fill="#e9573f"/><path d="m328 304c-39.695312 0-72 32.296875-72 72s32.304688 72 72 72 72-32.296875 72-72-32.304688-72-72-72zm0 128c-30.878906 0-56-25.128906-56-56s25.121094-56 56-56 56 25.128906 56 56-25.121094 56-56 56zm0 0"/><path d="m288 368h80v16h-80zm0 0"/><path d="m304 336h48v16h-48zm0 0"/><path d="m304 400h48v16h-48zm0 0"/><path d="m480 348.449219v-176.945313c0-94.566406-76.9375-171.503906-171.503906-171.503906-28.945313 0-52.496094 23.550781-52.496094 52.496094 0 20.007812 11.121094 38 29.015625 46.953125l33.144531 16.566406c87.550782 43.785156 142.671875 130.640625 145.558594 227.984375h-20.183594c-14.054687-50.664062-60.464844-88-115.535156-88h-328v17.296875l26.230469 78.703125h184.21875c-1.625 7.921875-2.449219 15.960938-2.449219 24 0 66.167969 53.832031 120 120 120 55.070312 0 101.480469-37.335938 115.535156-88h20.464844c17.648438 0 32-14.351562 32-32 0-11.792969-6.480469-22-16-27.550781zm-154.679688-246.738281-33.144531-16.566407c-12.449219-6.234375-20.175781-18.738281-20.175781-32.648437 0-20.121094 16.375-36.496094 36.496094-36.496094 85.742187 0 155.503906 69.761719 155.503906 155.503906v86.632813c-23.671875-67.007813-72.480469-123.320313-138.679688-156.425781zm-189.320312 170.289062h32v16h-32zm192 208c-57.34375 0-104-46.65625-104-104 0-9.992188 1.472656-19.992188 4.367188-29.71875l3.066406-10.28125h-193.664063l-21.335937-64h103.566406v32h64v-32h144c57.34375 0 104 46.65625 104 104s-46.65625 104-104 104zm136-88h-17.191406c.703125-5.246094 1.191406-10.558594 1.191406-16s-.488281-10.753906-1.191406-16h17.191406c8.824219 0 16 7.175781 16 16s-7.175781 16-16 16zm0 0"/></svg>