<svg height="499pt" viewBox="0 -1 499.664 499" width="499pt" xmlns="http://www.w3.org/2000/svg"><path d="m337.832031 32.332031-24-8-32 112 24 8 152 48 32-112zm0 0" fill="#ff826e"/><path d="m352.390625 36.933594-14.558594-4.601563-24-8-32 112 24 8 11.832031 3.734375zm0 0" fill="#fc6e51"/><path d="m297.464844 168.332031 42.773437-138.753906c2.363281-7.644531-1.207031-15.863281-8.429687-19.4375l-.160156-.082031c-2.296876-1.132813-4.832032-1.726563-7.410157-1.726563-7.277343 0-13.710937 4.710938-15.839843 11.601563l-43.269532 140.398437-83.855468 272-10.714844 34.753907c-2.359375 7.644531 1.210937 15.863281 8.433594 19.4375l.160156.082031c2.289062 1.132812 4.824218 1.726562 7.398437 1.726562 7.28125 0 13.714844-4.710937 15.839844-11.601562l8.746094-28.398438zm0 0" fill="#dfb28b"/><path d="m161.832031 32.332031 24-8 32 112-24 8-152 48-32-112zm0 0" fill="#ff826e"/><path d="m147.273438 36.933594 14.558593-4.601563 24-8 32 112-24 8-11.832031 3.734375zm0 0" fill="#fc6e51"/><path d="m286.054688 440.332031 11.226562 36.390625c2.125 6.898438 8.550781 11.609375 15.832031 11.609375 2.566407 0 5.101563-.59375 7.40625-1.726562l.160157-.082031c7.222656-3.574219 10.792968-11.792969 8.433593-19.4375l-10.722656-34.753907-83.855469-272-43.277344-140.398437c-2.121093-6.890625-8.554687-11.601563-15.832031-11.601563-2.570312 0-5.105469.59375-7.410156 1.726563l-.160156.082031c-7.222657 3.574219-10.792969 11.792969-8.429688 19.4375l42.773438 138.753906zm0 0" fill="#dfb28b"/><path d="m318.390625 432.332031-83.847656-272-4.511719-14.640625c-11.230469 1.394532-22.070312 3.976563-32.464844 7.585938l4.640625 15.054687 83.855469 272 5.632812 18.257813c10.863282-2.953125 21.273438-6.96875 31.097657-12.027344zm0 0" fill="#cf9e76"/><path d="m302.105469 153.277344c-10.394531-3.609375-21.234375-6.191406-32.464844-7.585938l-4.519531 14.640625-83.847656 272-4.386719 14.230469c9.824219 5.058594 20.234375 9.074219 31.097656 12.027344l3.152344-10.257813 86.320312-280zm0 0" fill="#cf9e76"/><path d="m393.832031 304.332031c0 79.527344-64.472656 144-144 144-79.527343 0-144-64.472656-144-144 0-79.527343 64.472657-144 144-144 79.527344 0 144 64.472657 144 144zm0 0" fill="#e6e9ed"/><g fill="#656d78"><path d="m289.832031 352.332031h-80l-16-64 56-32 56 32zm0 0"/><path d="m249.832031 160.332031c-23.367187 0-45.359375 5.6875-64.871093 15.566407l.871093.433593 64 32 64-32 .742188-.496093c-19.476563-9.839844-41.429688-15.503907-64.742188-15.503907zm0 0"/><path d="m161.832031 272.332031-16-64-.839843-2.511719c-20.625 21.9375-34.464844 50.273438-38.113282 81.777344-.144531 1.207032-.269531 2.414063-.382812 3.613282-.390625 4.328124-.664063 8.695312-.664063 13.121093 0 5.167969.296875 10.265625.832031 15.289063zm0 0"/><path d="m193.832031 384.332031h-63.71875c19.847657 29.640625 50.445313 51.375 86.183594 59.910157zm0 0"/><path d="m283.367188 444.242188c35.738281-8.535157 66.335937-30.269532 86.183593-59.910157h-63.71875zm0 0"/><path d="m390.953125 275.613281c-.152344-.769531-.394531-1.519531-.554687-2.28125-5.664063-25.800781-18.269532-48.9375-35.726563-67.503906l-.839844 2.503906-16 64 55.167969 47.289063c.535156-5.023438.832031-10.121094.832031-15.289063 0-9.070312-.960937-18.265625-2.671875-27.359375-.089844-.449218-.121094-.914062-.207031-1.359375zm0 0"/></g><path d="m463.265625 202.4375 36.398437-127.394531-150.863281-47.640625c1.101563-10-4.097656-19.804688-13.609375-24.519532-3.382812-1.664062-7.175781-2.550781-10.945312-2.550781-10.863282 0-20.300782 6.9375-23.484375 17.246094l-41.699219 135.21875c-3.0625-.183594-6.109375-.464844-9.230469-.464844-3.121093 0-6.167969.28125-9.238281.464844l-41.691406-135.21875c-3.183594-10.308594-12.613282-17.246094-23.488282-17.246094-3.773437 0-7.558593.886719-11.109374 2.640625-9.375 4.640625-14.5625 14.4375-13.457032 24.4375l-150.847656 47.632813 36.398438 127.394531 153.042968-48.328125 2.949219 9.574219c-55.398437 22.703125-94.558594 77.160156-94.558594 140.648437 0 55.40625 29.902344 103.847657 74.320313 130.40625l-9.242188 29.984375c-3.527344 11.449219 1.746094 23.632813 12.691406 29.050782 3.382813 1.671874 7.167969 2.558593 10.949219 2.558593 10.863281 0 20.304688-6.9375 23.488281-17.246093l8.058594-26.136719c10.238282 2.183593 20.847656 3.382812 31.734375 3.382812s21.496094-1.199219 31.734375-3.390625l8.058594 26.132813c3.183594 10.320312 12.621094 17.257812 23.488281 17.257812 3.78125 0 7.566407-.886719 11.109375-2.640625 10.792969-5.335937 16.066406-17.519531 12.53125-28.96875l-9.242187-29.984375c44.417969-26.558593 74.320312-75 74.320312-130.40625 0-63.488281-39.160156-117.945312-94.566406-140.648437l2.949219-9.574219zm-118.746094-159.601562 135.480469 42.785156-27.601562 96.605468-137.46875-43.40625zm-48.832031 133.625-45.855469 22.925781-45.855469-22.925781c14.351563-5.167969 29.742188-8.128907 45.855469-8.128907s31.503907 2.960938 45.855469 8.128907zm15.089844 199.871093-12.464844-24.929687 14.390625-57.558594 23.953125-11.976562 47.769531 40.945312c-2.664062 19.457031-9.425781 37.582031-19.425781 53.527344h-54.222656zm-121.890625 0h-54.222657c-10.007812-15.945312-16.769531-34.070312-19.425781-53.527343l47.769531-40.945313 23.953126 11.976563 14.390624 57.558593zm52.945312-124.640625-48.246093 27.578125-24.882813-12.441406-14.71875-58.855469c9.144531-9.097656 19.558594-16.90625 30.96875-23.128906l56.878906 28.433594zm-88.960937 17.785156-38.96875 33.398438c.320312-30.023438 10.472656-57.664062 27.304687-80.039062zm63.207031 74.855469-13.015625-52.0625 46.769531-26.722656 46.769531 26.722656-13.015624 52.0625zm130.714844-74.855469 11.65625-46.640624c16.832031 22.375 26.984375 50.023437 27.304687 80.039062zm-15.832031-2.65625-24.882813 12.441407-48.246094-27.570313v-38.40625l56.878907-28.441406c11.410156 6.214844 21.824218 14.03125 30.96875 23.128906zm-283.695313-84.59375-27.601563-96.605468 135.480469-42.785156 29.589844 95.984374zm119.796875-155.007812c-1.199219-3.902344.625-8.070312 4.496094-9.984375 4.609375-2.285156 10.5625.25 12.042968 5.058594l40.804688 132.34375c-5.734375.976562-11.375 2.207031-16.878906 3.808593zm-20.734375 365.113281h41.960937l14.839844 39.558594c-22.21875-8.160156-41.738281-21.863281-56.800781-39.558594zm36.207031 87.015625c-3.710937-1.832031-5.535156-6-4.328125-9.910156l8.34375-27.089844c5.226563 2.398438 10.570313 4.566406 16.082031 6.382813l-7.898437 25.632812c-1.46875 4.824219-7 7.5625-12.199219 4.984375zm39.792969-41.816406-19.777344-52.742188 12.226563-24.457031h70.109375l12.226562 24.457031-19.777343 52.742188c-8.886719 1.832031-18.078126 2.800781-27.503907 2.800781s-18.617187-.96875-27.503906-2.800781zm99.128906 31.914062c1.207031 3.902344-.617187 8.070313-4.488281 9.984376-4.59375 2.269531-10.5625-.242188-12.046875-5.058594l-7.90625-25.632813c5.519531-1.804687 10.863281-3.972656 16.089844-6.382812zm-24.914062-37.554687 14.832031-39.558594h41.960938c-15.0625 17.695313-34.582032 31.398438-56.792969 39.558594zm-21.285157-277.253906 40.804688-132.34375c1.480469-4.816407 6.960938-7.554688 12.203125-4.984375 3.710937 1.839844 5.535156 6.007812 4.328125 9.910156l-40.457031 131.21875c-5.503907-1.59375-11.144531-2.832031-16.878907-3.800781zm0 0"/></svg>