<svg height="505pt" viewBox="0 -5 505.888 505" width="505pt" xmlns="http://www.w3.org/2000/svg"><path d="m196.945312 422.757812v64h-184l16-32-16-32zm0 0" fill="#fcd770"/><path d="m308.945312 422.757812v64h184l-16-32 16-32zm0 0" fill="#fcd770"/><path d="m116.945312 422.757812v41.886719l44.214844 22.113281h35.785156v-64zm0 0" fill="#ffc729"/><path d="m388.945312 422.757812h-80v64h35.78125l44.21875-22.113281zm0 0" fill="#ffc729"/><path d="m132.945312 390.757812h240v64h-240zm0 0" fill="#ffeaa7"/><path d="m196.945312 454.757812h-64l64 32zm0 0" fill="#ff826e"/><path d="m308.945312 454.757812h64l-64 32zm0 0" fill="#ff826e"/><path d="m396.945312 246.757812c0 79.527344-64.472656 144-144 144-79.53125 0-144-64.472656-144-144 0-79.53125 64.46875-144 144-144 79.527344 0 144 64.46875 144 144zm0 0" fill="#e6e9ed"/><g fill="#656d78"><path d="m308.945312 326.757812-22.464843 59.910157c35.734375-8.535157 66.335937-30.273438 86.183593-59.910157zm0 0"/><path d="m292.945312 294.757812h-80l-16-64 56-32 56 32zm0 0"/><path d="m252.945312 102.757812c-23.433593 0-45.496093 5.71875-65.050781 15.644532l1.050781.355468 64 32 64-32 1.046876-.355468c-19.550782-9.925782-41.617188-15.644532-65.046876-15.644532zm0 0"/><path d="m148.945312 150.757812-1.105468-2.210937c-24.054688 25.730469-38.894532 60.199219-38.894532 98.210937 0 5.167969.292969 10.261719.832032 15.285157l55.167968-47.285157zm0 0"/><path d="m196.945312 326.757812h-63.722656c19.847656 29.636719 50.449219 51.375 86.183594 59.910157zm0 0"/><path d="m396.113281 262.042969c.535157-5.023438.832031-10.117188.832031-15.285157 0-38.152343-14.945312-72.746093-39.160156-98.515624l-.839844 2.515624-16 64zm0 0"/></g><path d="m252.945312 14.757812-24 32h-8l-64-32 16 88h160l16-88-64 32h-8zm0 0" fill="#fcd770"/><path d="m149.207031 390.757812c31.257813 15.414063 66.074219 24 102.28125 24h1.457031c36.207032 0 71.03125-8.585937 102.292969-24zm0 0" fill="#fcd770"/><path d="m505.886719 414.757812h-124.941407v-32h-46.539062c51.890625-21.210937 93.722656-62.027343 116.273438-113.210937l38.359374-20.566406-7.558593-14.105469-22.222657 11.921875c4.972657-15.992187 8.085938-32.785156 9.199219-50.121094l29.007813-32.441406-11.921875-10.664063-17.03125 19.042969c-.792969-17.167969-3.527344-34.042969-8.3125-50.425781l16.183593-40.457031-14.855468-5.941407-13.191406 33-40.839844-13.617187-5.0625 15.175781 41.644531 13.878906c4.808594 15.714844 7.625 31.914063 8.449219 48.433594l-24.382813-19.351562-9.953125 12.527344 34.503906 27.382812c-.871093 16.808594-3.832031 33.066406-8.617187 48.527344l-16.4375-26.757813-13.625 8.375 23.046875 37.519531c-14.847656 34.855469-39.335938 64.632813-70.070312 86.042969 23.535156-26.777343 37.953124-61.785156 37.953124-100.167969 0-59.5625-34.519531-111.089843-84.53125-136h19.210938l20.054688-110.3125-76.625 38.3125h-2.109376l-28-37.335937-28 37.335937h-2.113281l-76.625-38.3125 20.058594 110.3125h19.207031c-50.007812 24.910157-84.527344 76.4375-84.527344 136 0 39.652344 15.390626 75.703126 40.351563 102.789063-32.542969-21.566406-58.449219-52.367187-73.914063-88.671875l23.050782-37.511719-13.625-8.375-16.433594 26.75c-4.78125-15.460937-7.742188-31.71875-8.605469-48.519531l34.503907-27.382812-9.953126-12.527344-24.382812 19.351562c.824219-16.527344 3.636719-32.726562 8.445312-48.433594l41.648438-13.878906-5.0625-15.175781-40.839844 13.617187-13.191406-33-14.875 5.941407 16.183594 40.457031c-4.78125 16.375-7.519532 33.25-8.308594 50.433594l-17.035156-19.042969-11.917969 10.664063 29 32.433593c1.113281 17.335938 4.222656 34.128907 9.199219 50.121094l-22.230469-11.921875-7.5625 14.105469 38.371094 20.574219c22.550781 51.175781 64.382812 91.992187 116.269531 113.203124h-45.085938v32h-124.945312l20 40-20 40h204.945312v-32h96v32h204.941407l-20-40zm-280.445313-34.800781-19.777344-52.746093 12.222657-24.453126h70.113281l12.222656 24.453126-19.773437 52.746093c-8.890625 1.832031-18.082031 2.800781-27.503907 2.800781-9.425781 0-18.617187-.96875-27.503906-2.800781zm89.046875-45.199219h41.960938c-15.066407 17.695313-34.585938 31.398438-56.792969 39.558594zm-.601562-16-12.460938-24.929687 14.390625-57.558594 23.953125-11.976562 47.765625 40.941406c-2.664062 19.457031-9.421875 37.585937-19.421875 53.53125h-54.226562zm-94.695313-32-13.015625-52.066406 46.769531-26.71875 46.765626 26.71875-13.015626 52.066406zm130.710938-74.859374 11.65625-46.636719c16.832031 22.375 26.984375 50.023437 27.304687 80.039062zm-15.832032-2.65625-24.878906 12.441406-48.246094-27.566406v-38.410157l56.878907-28.4375c11.40625 6.214844 21.824219 14.03125 30.96875 23.125zm-89.125-15.125-48.25 27.574218-24.878906-12.4375-14.71875-58.859375c9.140625-9.09375 19.558594-16.902343 30.964844-23.125l56.882812 28.429688zm-88.960937 17.78125-38.96875 33.402343c.320313-30.023437 10.472656-57.664062 27.304687-80.039062zm10.128906 12.386718 23.949219 11.976563 14.394531 57.558593-12.457031 24.9375h-54.222656c-10.007813-15.945312-16.769532-34.074218-19.425782-53.53125zm25.285157 110.472656 14.839843 39.558594c-22.207031-8.160156-41.726562-21.863281-56.789062-39.558594zm-11.773438-240-11.945312-65.691406 51.375 25.691406h13.890624l20-26.664062 20 26.664062h13.886719l51.375-25.691406-11.941406 65.691406zm119.175781 24.125-45.855469 22.929688-45.855468-22.929688c14.351562-5.167968 29.742187-8.125 45.855468-8.125 16.109376 0 31.503907 2.957032 45.855469 8.125zm66.144531 279.875v48h-224v-48zm-339.058593 32h99.058593v28.941407l38.109376 19.058593h-137.167969l12-24zm163.058593 43.054688-22.113281-11.054688h22.113281zm150.109376-11.054688-22.109376 11.054688v-11.054688zm140.945312 16h-137.167969l38.113281-19.058593v-28.941407h99.054688l-12 24zm0 0"/></svg>