<svg height="496pt" viewBox="0 0 496 496" width="496pt" xmlns="http://www.w3.org/2000/svg"><path d="m240 408h112v32h-112zm0 0" fill="#dfb28b"/><path d="m332.03125 440h19.96875v-32h-32.488281zm0 0" fill="#cf9e76"/><path d="m328 304 72 184h-32l-72-184zm0 0" fill="#dfb28b"/><path d="m240 408v32h19.96875l12.519531-32zm0 0" fill="#cf9e76"/><path d="m264 304-72 184h32l72-184zm0 0" fill="#dfb28b"/><path d="m184 176v112c0 8.839844 7.160156 16 16 16h192c8.839844 0 16-7.160156 16-16v-96c0-8.839844-7.160156-16-16-16zm0 0" fill="#838f9b"/><path d="m296 256c-26.472656 0-48 21.527344-48 48h96c0-26.472656-21.527344-48-48-48zm0 0" fill="#656d78"/><path d="m264 304-9.335938 23.855469c5.414063 9.34375 13.695313 16.816406 23.855469 20.808593l17.480469-44.664062zm0 0" fill="#cf9e76"/><path d="m328 304h-32l17.472656 44.65625c10.160156-3.992188 18.4375-11.464844 23.855469-20.808594zm0 0" fill="#cf9e76"/><path d="m328 304c0 17.671875-14.328125 32-32 32s-32-14.328125-32-32 14.328125-32 32-32 32 14.328125 32 32zm0 0" fill="#fcd770"/><path d="m184 251.792969c32.625-14.816407 58.320312-42.113281 71.089844-75.792969h-71.089844zm0 0" fill="#656d78"/><path d="m248 128c0 66.273438-53.726562 120-120 120s-120-53.726562-120-120 53.726562-120 120-120 120 53.726562 120 120zm0 0" fill="#e6e9ed"/><path d="m408 272 48 16h32v-96h-32l-48 16zm0 0" fill="#48cfad"/><g fill="#656d78"><path d="m152 160h-48l-8-40 32-24 32 24zm0 0"/><path d="m32.0625 56.128906c-15.039062 20.046875-24.0625 44.878906-24.0625 71.871094l48-24zm0 0"/><path d="m26.617188 192c15.496093 24.488281 39.542968 42.96875 68.015624 51.199219l-14.632812-51.199219zm0 0"/><path d="m174.40625 17.320312c-14.269531-5.992187-29.949219-9.320312-46.40625-9.320312-16.449219 0-32.121094 3.328125-46.390625 9.3125l46.789063 38.289062zm0 0"/><path d="m176 192-15.34375 51.382812c28.777344-8.136718 53.105469-26.6875 68.726562-51.382812zm0 0"/><path d="m208 104 40 24c0-26.984375-9.015625-51.808594-24.046875-71.847656zm0 0"/></g><path d="m456 192h32v96h-32zm0 0" fill="#37bc9b"/><path d="m248 208h96v32h-96zm0 0" fill="#4fc1e9"/><path d="m424 202.664062-16 5.335938v64l16 5.335938zm0 0" fill="#37bc9b"/><path d="m454.703125 184-38.703125 12.894531v-4.894531c0-13.230469-10.769531-24-24-24h-142.488281c4.160156-12.601562 6.488281-26.023438 6.488281-40 0-70.574219-57.425781-128-128-128s-128 57.425781-128 128 57.425781 128 128 128c16.976562 0 33.160156-3.390625 48-9.425781v41.425781c0 13.230469 10.769531 24 24 24h48.382812l-76.367187 184h57.425781l19.015625-48h95.09375l19.015625 48h57.425782l-76.367188-184h48.375c13.230469 0 24-10.769531 24-24v-4.894531l38.703125 12.894531h41.296875v-112zm-272.671875 16h31.640625c-10.886719 12.9375-24.648437 23.335938-40.289063 30.304688zm42.816406-16h-44.847656l-19.457031-25.9375 6.394531-31.933594 40.101562-13.367187 32.738282 19.636719c-.730469 18.746093-6.050782 36.304687-14.929688 51.601562zm-148.847656 0h-44.847656c-8.816406-15.183594-14.113282-32.585938-14.914063-51.175781l40.121094-20.0625 32.640625 13.054687 6.457031 32.238282zm-59.121094-69.382812c1.839844-15.351563 6.800782-29.722657 14.226563-42.527344l14.167969 28.335937zm87.953125 8.757812 23.167969-17.375 23.167969 17.375-5.71875 28.625h-34.890625zm121.464844-48.984375c6.464844 11.808594 10.765625 24.9375 12.605469 38.824219l-21.285156-12.773438zm-11.273437-16.75-13.34375 40.03125-40.230469 13.40625-25.449219-19.078125v-32.320312l39.574219-32.917969c15.371093 7.246093 28.867187 17.804687 39.449219 30.878906zm-56.6875-37.351563-29.976563 24.933594-30.535156-24.976562c9.617187-2.695313 19.710937-4.246094 30.175781-4.246094 10.527344 0 20.671875 1.558594 30.335938 4.289062zm-77.855469 6.4375 39.519531 32.335938v32.9375l-25.199219 18.902344-33-13.199219-20.351562-40.695313c10.527343-12.808593 23.878906-23.136718 39.03125-30.28125zm-38.144531 173.273438h31.640624l8.648438 30.304688c-15.640625-6.96875-29.402344-17.367188-40.289062-30.304688zm58.71875 36.585938-12.277344-42.960938 19.222656-25.625h40l19.214844 25.625-12.277344 42.960938c-8.640625 2.148437-17.632812 3.414062-26.9375 3.414062s-18.296875-1.265625-26.945312-3.414062zm117.503906 243.414062h-22.574219l65.105469-156.871094c3.300781 6 8 11.070313 13.789062 14.695313zm77.441406-136c2.089844 0 4.105469-.304688 6.113281-.617188l22.421875 56.617188h-57.070312l22.421875-56.617188c2.007812.3125 4.023437.617188 6.113281.617188zm0-16c-13.230469 0-24-10.769531-24-24s10.769531-24 24-24 24 10.769531 24 24-10.769531 24-24 24zm-41.207031 104 6.335937-16h69.742188l6.335937 16zm118.648437 48-56.320312-142.167969c5.789062-3.625 10.488281-8.695312 13.789062-14.695312l65.105469 156.863281zm26.558594-192c0 4.40625-3.585938 8-8 8h-56.808594c-3.71875-18.230469-19.871094-32-39.191406-32s-35.472656 13.769531-39.191406 32h-56.808594c-4.414062 0-8-3.59375-8-8v-49.320312c21.945312-12.742188 39.71875-31.792969 50.921875-54.679688h149.078125c4.414062 0 8 3.59375 8 8zm16-74.230469 32-10.664062v73.796875l-32-10.664063zm64 66.230469h-16v-80h16zm0 0"/><path d="m240 248h112v-48h-112zm16-32h80v16h-80zm0 0"/></svg>