<svg height="496pt" viewBox="-32 0 496 496" width="496pt" xmlns="http://www.w3.org/2000/svg"><path d="m72 176v72h-64v-152.945312c0-27.992188 18.191406-52.734376 44.910156-61.085938l83.089844-25.96875h160l83.089844 25.96875c26.71875 8.34375 44.910156 33.085938 44.910156 61.085938v152.945312h-64v-72zm0 0" fill="#fcd770"/><path d="m72 96v152h-16zm0 0" fill="#ffc729"/><path d="m360 96v152h16zm0 0" fill="#ffc729"/><path d="m379.089844 33.96875-83.089844-25.96875h-160l-83.089844 25.96875c-14.261718 4.457031-25.964844 13.671875-33.902344 25.472656l33.199219 37.933594c12.761719 14.585938 19.792969 33.304688 19.792969 52.679688v337.945312h288v-337.945312c0-19.375 7.03125-38.09375 19.792969-52.679688l33.199219-37.933594c-7.9375-11.800781-19.640626-21.015625-33.902344-25.472656zm0 0" fill="#ff826e"/><path d="m296 8h-8l-72 96-72-96h-8l-30.6875 9.59375 110.6875 134.40625 110.6875-134.40625zm0 0" fill="#fcd770"/><path d="m8 200h64v48h-64zm0 0" fill="#ff826e"/><path d="m56 248h16v-48h-10.945312zm0 0" fill="#fc6e51"/><path d="m360 200h64v48h-64zm0 0" fill="#ff826e"/><path d="m280 232 40-48h-80zm0 0" fill="#fcd770"/><path d="m104 424h48v32h-48zm0 0" fill="#fcd770"/><path d="m360 200v48h16l-5.054688-48zm0 0" fill="#fc6e51"/><path d="m144 8 72 96 72-96zm0 0" fill="#838f9b"/><path d="m432 95.054688c0-31.664063-20.304688-59.277344-50.527344-68.71875l-83.089844-25.96875-162.382812-.367188-85.472656 26.335938c-30.222656 9.441406-50.527344 37.054687-50.527344 68.71875v160.945312h64v240h304v-240h64zm-64 80.945312v-25.9375c0-17.453125 6.328125-34.285156 17.824219-47.421875l25.65625-29.320313c2.824219 6.742188 4.519531 14.046876 4.519531 21.734376v96.945312h-48zm-96-160-56 74.664062-56-74.664062zm-134.785156 0h2.785156l76 101.335938 76-101.335938h2.785156l18.175782 5.679688-96.960938 117.734374-96.960938-117.734374zm-73.214844 160v16h-48v-96.945312c0-7.6875 1.695312-14.992188 4.527344-21.734376l25.65625 29.320313c11.488281 13.136719 17.816406 29.96875 17.816406 47.421875zm-48 64v-32h48v32zm64 89.089844 34.871094 29.0625 10.25-12.296875-45.121094-37.609375v-43.15625l130.871094 109.0625 10.25-12.296875-141.121094-117.609375v-43.15625l272 226.664062v43.15625l-114.871094-95.726562-10.25 12.296875 111.015625 92.519531h-51.789062l-144.976563-120.816406-10.25 12.296875 130.21875 108.519531h-181.097656zm272 77.820312-272-226.664062v-30.183594c0-21.328125-7.734375-41.910156-21.777344-57.949219l-28.949218-33.089843c6.703124-7.945313 15.527343-14.144532 26.023437-17.421876l47.261719-14.769531 113.441406 137.753907 113.441406-137.753907 47.261719 14.769531c10.496094 3.277344 19.320313 9.476563 26.023437 17.414063l-28.949218 33.089844c-14.042969 16.046875-21.777344 36.628906-21.777344 57.957031zm16-166.910156v-32h48v32zm0 0"/><path d="m280 244.496094 57.078125-68.496094h-114.15625zm0-24.992188-22.921875-27.503906h45.84375zm0 0"/><path d="m96 416v48h64v-48zm48 32h-32v-16h32zm0 0"/></svg>