<svg height="497pt" viewBox="0 0 497.888 497" width="497pt" xmlns="http://www.w3.org/2000/svg"><path d="m408.945312 376.445312-160 80-160-80v-240h320zm0 0" fill="#ff826e"/><path d="m376.945312 160.445312v196.222657l-128 64-128-64v-196.222657zm0 0" fill="#fcd770"/><path d="m72.945312 104.445312h352v32h-352zm0 0" fill="#b27946"/><path d="m471.054688 136.445312h-14.109376v-32h14.109376c6.066406 0 11.601562 3.421876 14.3125 8.847657l3.578124 7.152343-3.578124 7.152344c-2.710938 5.421875-8.253907 8.847656-14.3125 8.847656zm0 0" fill="#fcd770"/><path d="m26.832031 136.445312h14.113281v-32h-14.113281c-6.0625 0-11.601562 3.421876-14.3125 8.847657l-3.574219 7.152343 3.574219 7.152344c2.710938 5.421875 8.257813 8.847656 14.3125 8.847656zm0 0" fill="#fcd770"/><path d="m264.945312 24.445312c0 8.835938-7.164062 16-16 16-8.835937 0-16-7.164062-16-16 0-8.835937 7.164063-16 16-16 8.835938 0 16 7.164063 16 16zm0 0" fill="#fcd770"/><path d="m344.945312 264.445312c0 53.019532-42.980468 96-96 96-53.019531 0-96-42.980468-96-96 0-53.019531 42.980469-96 96-96 53.019532 0 96 42.980469 96 96zm0 0" fill="#e6e9ed"/><g fill="#434a54"><path d="m248.945312 208.445312 39.367188-31.496093c-12.023438-5.417969-25.328125-8.503907-39.367188-8.503907-14.042968 0-27.34375 3.085938-39.371093 8.503907zm0 0"/><path d="m177.921875 200.019531c-15.472656 17.039063-24.976563 39.59375-24.976563 64.425781 0 3.527344.214844 7 .589844 10.421876l42.152344-27.726563zm0 0"/><path d="m216.023438 309.746094-50.351563 2.339844c13.441406 23.4375 36.425781 40.703124 63.710937 46.351562zm0 0"/><path d="m281.863281 309.746094-13.359375 48.691406c27.289063-5.648438 50.265625-22.914062 63.710938-46.351562zm0 0"/><path d="m302.199219 247.140625 42.152343 27.726563c.375-3.421876.59375-6.894532.59375-10.421876 0-24.832031-9.503906-47.386718-24.976562-64.425781zm0 0"/><path d="m264.945312 288.445312h-32l-16-32 32-24 32 24zm0 0"/></g><path d="m88.945312 136.445312h320v16h-320zm0 0" fill="#fc6e51"/><path d="m384.945312 361.613281v-201.167969h-16v191.277344l-120 60-120-60v-191.277344h-16v201.167969l136 68zm0 0"/><path d="m248.945312 368.445312c57.34375 0 104-46.65625 104-104s-46.65625-104-104-104-104 46.65625-104 104 46.65625 104 104 104zm-68.609374-49.023437 29.671874-1.378906 7.855469 28.632812c-14.832031-5.632812-27.757812-15.097656-37.527343-27.253906zm105.734374-17.488281-11.214843-15.433594 13.167969-26.34375 12.984374-4.222656 34.65625 22.796875c-1.464843 8.898437-4.238281 17.335937-8.167968 25.128906zm-58.980468-43.097656 21.855468-16.390626 21.855469 16.390626-10.800781 21.609374h-22.113281zm84.855468-14.863282 10.488282-27.808594c8.421875 12.785157 13.535156 27.878907 14.300781 44.121094zm-15.875-3.257812-15.886718 5.160156-23.238282-17.429688v-16.152343l32.414063-25.9375c7.886719 4.097656 15.097656 9.320312 21.367187 15.511719zm-55.125-12.269532-23.25 17.429688-15.886718-5.160156-14.648438-38.847656c6.273438-6.191407 13.480469-11.414063 21.367188-15.511719l32.417968 25.9375zm-55 15.527344-24.792968 16.304688c.769531-16.234375 5.871094-31.335938 14.304687-44.121094zm10.925782 11.96875 12.984375 4.222656 13.167969 26.34375-11.214844 15.433594-41.441406 1.925782c-3.925782-7.792969-6.703126-16.230469-8.167969-25.128907zm38.863281 95.398438-10.972656-40.007813 10.824219-14.886719h26.71875l10.824218 14.894532-10.976562 40.007812c-4.320313.648438-8.703125 1.097656-13.207032 1.097656-4.503906 0-8.890624-.449218-13.210937-1.105468zm44.289063-4.671875 7.855468-28.632813 29.671875 1.375c-9.765625 12.167969-22.695312 21.632813-37.527343 27.257813zm-7.886719-167.023438-23.191407 18.550781-23.191406-18.550781c7.398438-2.023437 15.148438-3.199219 23.191406-3.199219 8.039063 0 15.789063 1.175782 23.191407 3.199219zm0 0"/><path d="m492.519531 109.707031c-4.085937-8.183593-12.320312-13.261719-21.464843-13.261719h-22.109376v16h-16v-16h-21.929687l-138.617187-77.007812c-2.308594-10.832031-11.941407-18.992188-23.453126-18.992188-11.511718 0-21.144531 8.160157-23.457031 18.992188l-138.617187 77.007812h-21.925782v16h-16v-16h-22.113281c-9.144531 0-17.367187 5.078126-21.464843 13.261719l-5.367188 10.738281 5.367188 10.734376c4.089843 8.183593 12.320312 13.265624 21.464843 13.265624h22.113281v-16h16v16h16v272h16v-27.058593l16 8v35.058593h16v-27.058593l16 8v35.058593h16v-27.058593l16 8v35.058593h16v-27.058593l16 8v35.058593h16v-27.058593l16 8v35.058593h16v-35.058593l16-8v27.058593h16v-35.058593l16-8v27.058593h16v-35.058593l16-8v27.058593h16v-35.058593l16-8v27.058593h16v-35.058593l16-8v27.058593h16v-272h16v-16h16v16h22.109376c9.144531 0 17.371093-5.082031 21.464843-13.265624l5.367188-10.734376zm-459.574219 18.738281h-6.113281c-3.046875 0-5.792969-1.699218-7.152343-4.425781l-1.792969-3.574219 1.792969-3.578124c1.359374-2.726563 4.105468-4.421876 7.152343-4.421876h6.113281zm216-112c4.40625 0 8 3.589844 8 8 0 4.40625-3.59375 8-8 8-4.410156 0-8-3.59375-8-8 0-4.410156 3.589844-8 8-8zm-20.769531 19.796876c4.136719 7.25 11.839844 12.203124 20.769531 12.203124 8.925782 0 16.628907-4.953124 20.765626-12.203124l108.359374 60.203124h-258.253906zm172.769531 335.257812-152 76-152-76v-227.054688h304zm16-243.054688h-336v-16h336zm61.261719-4.425781c-1.359375 2.726563-4.101562 4.425781-7.152343 4.425781h-6.109376v-16h6.109376c3.050781 0 5.792968 1.695313 7.152343 4.421876l1.792969 3.578124zm0 0"/></svg>