<svg height="496pt" viewBox="0 -104 496 496" width="496pt" xmlns="http://www.w3.org/2000/svg"><path d="m208 72-19.199219-25.601562c-3.113281-4.152344-4.800781-9.207032-4.800781-14.398438 0-13.257812 10.742188-24 24-24h2.40625c8.433594 0 16.242188 4.425781 20.578125 11.65625l17.015625 28.34375zm0 0" fill="#fcd770"/><path d="m56 24-15.175781 5.054688c-19.601563 6.539062-32.824219 24.882812-32.824219 45.546874v110.566407c0 9.753906 2.273438 19.375 6.632812 28.097656 10.648438 21.285156 32.398438 34.734375 56.199219 34.734375h351.222657c36.425781 0 65.945312-29.519531 65.945312-65.945312 0-27.664063-17.265625-52.390626-43.238281-61.910157l-196.761719-72.144531-19.375 11.625c-13.496094 8.09375-28.9375 12.375-44.671875 12.375h-50.28125c-32.894531 0-62.960937-18.585938-77.671875-48zm0 0" fill="#37bc9b"/><path d="m444.761719 120.144531-29.019531-10.640625-39.742188 26.496094h-72.679688c-14.472656 0-27.878906 7.59375-35.320312 20-7.449219 12.40625-20.855469 20-35.320312 20h-4.894532c-21.929687 0-41.96875 12.390625-51.777344 32l16 40h230.054688c36.417969 0 65.9375-29.519531 65.9375-65.945312 0-27.664063-17.273438-52.382813-43.238281-61.910157zm0 0" fill="#fcd770"/><g fill="#aab2bd"><path d="m160 248-8 32h-32l-8-32zm0 0"/><path d="m368 248-8 32h-32l-8-32zm0 0"/><path d="m48.769531 243.847656 7.230469 36.152344h32l8-32h-25.167969c-7.6875 0-15.105469-1.535156-22.0625-4.152344zm0 0"/><path d="m304 248-8 32h-32l-8-32zm0 0"/><path d="m422.054688 248h-38.054688l8 32h32l8.214844-32.855469c-3.320313.511719-6.695313.855469-10.160156.855469zm0 0"/></g><path d="m48.769531 243.847656 4.03125 20.152344h39.199219l4-16h-25.167969c-7.6875 0-15.105469-1.535156-22.0625-4.152344zm0 0" fill="#969faa"/><path d="m14.632812 213.265625c10.648438 21.285156 32.398438 34.734375 56.199219 34.734375h351.222657c35.746093 0 64.785156-28.464844 65.839843-63.953125-31.535156 15.753906-66.300781 23.953125-101.558593 23.953125h-322.335938s-56-16-56-56v33.167969c0 9.753906 2.273438 19.375 6.632812 28.097656zm0 0" fill="#ccd1d9"/><path d="m441.167969 118.832031-193.167969-70.832031-19.375 11.625c-6 3.597656-12.425781 6.3125-19.050781 8.367188l176.890625 73.703124c3.65625 1.519532 7.574218 2.304688 11.535156 2.304688 6.488281 0 12.808594-2.105469 18-6l24-18zm0 0" fill="#e6e9ed"/><path d="m96 64-.351562-.945312c-16.832032-8.214844-30.960938-21.671876-39.648438-39.054688l-15.175781 5.054688c-19.601563 6.539062-32.824219 24.882812-32.824219 45.546874v45.398438l19.734375-24.671875c7.753906-9.6875 19.488281-15.328125 31.898437-15.328125 8.0625 0 15.953126-2.382812 22.65625-6.863281zm0 0" fill="#ccd1d9"/><path d="m56 144h48v32h-48zm0 0" fill="#48cfad"/><path d="m156 264 4-16h-48l4 16zm0 0" fill="#969faa"/><path d="m300 264 4-16h-48l4 16zm0 0" fill="#969faa"/><path d="m364 264 4-16h-48l4 16zm0 0" fill="#969faa"/><path d="m384 248 4 16h40l4.214844-16.855469c-3.320313.511719-6.695313.855469-10.160156.855469zm0 0" fill="#969faa"/><path d="m496 182.054688c0-30.886719-19.488281-58.789063-48.488281-69.421876l-194.113281-71.175781-15.550782-25.921875c-5.734375-9.582031-16.253906-15.535156-27.433594-15.535156h-2.414062c-17.648438 0-32 14.351562-32 32 0 6.871094 2.273438 13.6875 6.398438 19.199219l9.210937 12.28125c-2.546875.246093-5.089844.519531-7.664063.519531h-50.28125c-30.046874 0-57.070312-16.695312-70.503906-43.574219l-3.105468-6.203125-21.765626 7.25c-22.898437 7.632813-38.289062 28.984375-38.289062 53.128906v110.566407c0 10.929687 2.585938 21.878906 7.480469 31.679687 7.488281 14.992188 19.695312 26.441406 34.328125 32.976563l7.640625 38.175781h44.808593l7.988282-32h3.515625l7.992187 32h44.492188l7.992187-32h83.523438l7.992187 32h44.492188l7.992187-32h3.515625l7.988282 32h44.496093l7.992188-32h3.511719l7.992187 32h44.496094l8.488281-33.96875c32.769531-7.589844 57.28125-36.941406 57.28125-71.976562zm-16.238281-3.046876c-29.105469 13.695313-61.265625 20.992188-93.425781 20.992188h-195.191407c9.28125-10.089844 22.414063-16 36.632813-16h4.902344c17.175781 0 33.335937-9.152344 42.175781-23.878906 5.976562-9.945313 16.878906-16.121094 28.464843-16.121094h67.886719l12.175781 5.070312c4.65625 1.945313 9.578126 2.929688 14.617188 2.929688 8.167969 0 16.257812-2.695312 22.800781-7.601562l21.902344-16.421876c21.359375 8.152344 35.839844 28.320313 37.058594 51.03125zm-230.929688-122.175781 8.121094 2.976563 12.167969 24.328125-39.074219-16.28125c.882813-.488281 1.824219-.855469 2.6875-1.375zm42.894531 36.71875-12.855468-25.710937 27.074218 9.929687 13.710938 27.421875zm104.785157 42.226563-17.925781-31.378906 46.261718 16.960937-13.648437 10.242187c-4.191407 3.152344-9.496094 4.496094-14.6875 4.175782zm-23.105469-8.191406-31.160156-12.984376-14.398438-28.808593 27.433594 10.054687zm-165.40625-111.585938h2.414062c5.585938 0 10.84375 2.976562 13.722657 7.769531l12.886719 21.488281-12.519532 7.511719c-4.640625 2.78125-9.601562 4.902344-14.664062 6.671875l-1.839844-.769531-12.800781-17.070313c-2.0625-2.753906-3.199219-6.160156-3.199219-9.601562 0-8.824219 7.175781-16 16-16zm-164.648438 20.648438 8.832032-2.945313c7.410156 12.480469 17.488281 22.695313 29.175781 30.441406l-3.511719 2.335938c-5.40625 3.617187-11.703125 5.519531-18.214844 5.519531-14.921874 0-28.832031 6.679688-38.152343 18.335938l-5.480469 6.855468v-22.589844c0-17.25 10.992188-32.496093 27.351562-37.953124zm-27.351562 86.160156 17.984375-22.480469c6.261719-7.832031 15.609375-12.328125 25.648437-12.328125 9.671876 0 19.039063-2.832031 27.09375-8.199219l10.511719-7.007812c11.3125 4.679687 23.640625 7.207031 36.425781 7.207031h50.28125c8.605469 0 17.132813-1.175781 25.359376-3.457031l123.503906 51.457031h-29.480469c-17.175781 0-33.335937 9.152344-42.175781 23.878906-5.984375 9.953125-16.886719 16.121094-28.472656 16.121094h-4.902344c-23.386719 0-44.449219 12.199219-56.320313 32h-106.257812c-7.054688-2.265625-49.199219-17.078125-49.199219-48zm65.753906 149.191406h-19.203125l-3.40625-17.054688c3.832031.628907 7.710938 1.054688 11.6875 1.054688h14.921875zm64 0h-19.507812l-4.007813-16h27.515625zm144 0h-19.507812l-4.007813-16h27.515625zm64 0h-19.507812l-4.007813-16h27.515625zm44.492188 0-4.007813-16h27.515625l-4.011718 16zm23.808594-32h-351.222657c-20.902343 0-39.703125-11.617188-49.046875-30.3125-3.175781-6.351562-5.015625-13.351562-5.554687-20.429688 17.753906 18.175782 43.90625 25.957032 45.570312 26.4375l1.078125.304688h323.457032c31.320312 0 62.65625-6.414062 91.527343-18.574219-6.75 24.503907-29.183593 42.574219-55.808593 42.574219zm0 0"/><path d="m112 136h-64v48h64zm-16 32h-32v-16h32zm0 0"/></svg>